<svg width="52" height="62" viewBox="0 0 52 62" fill="none" xmlns="http://www.w3.org/2000/svg">
<path fill-rule="evenodd" clip-rule="evenodd" d="M45.9834 6.58167C32.9021 5.12507 19.6986 5.12507 6.61722 6.58167C5.73212 6.68023 5.30588 7.71432 5.86602 8.40417L17.431 22.647C21.5739 27.7492 23.8341 34.1131 23.8341 40.6758V50.141L28.7665 53.7447V40.6758C28.7665 34.1131 31.0268 27.7492 35.1697 22.647L46.7346 8.40416C47.2948 7.71432 46.8685 6.68023 45.9834 6.58167ZM6.06936 1.69799C19.5148 0.200849 33.0858 0.200849 46.5313 1.69799C51.2892 2.22778 53.5804 7.78656 50.5694 11.4948L39.0044 25.7376C35.5717 29.9652 33.6989 35.2382 33.6989 40.6758V58.5934C33.6989 59.5193 33.1765 60.3666 32.3475 60.7852C31.5185 61.2037 30.5237 61.1224 29.7743 60.5748L19.9095 53.3675C19.276 52.9046 18.9017 52.1688 18.9017 51.3861V40.6758C18.9017 35.2381 17.0289 29.9652 13.5962 25.7376L2.03128 11.4948C-0.979769 7.78656 1.31145 2.22778 6.06936 1.69799Z" fill="white"/>
</svg>
