<svg width="70" height="70" viewBox="0 0 70 70" fill="none" xmlns="http://www.w3.org/2000/svg">
<path fill-rule="evenodd" clip-rule="evenodd" d="M35 6C18.9837 6 6 18.9837 6 35C6 51.0163 18.9837 64 35 64C51.0163 64 64 51.0163 64 35C64 18.9837 51.0163 6 35 6ZM0 35C0 15.67 15.67 0 35 0C54.33 0 70 15.67 70 35C70 54.33 54.33 70 35 70C15.67 70 0 54.33 0 35Z" fill="white"/>
<path fill-rule="evenodd" clip-rule="evenodd" d="M30.3992 24.235C26.6649 27.3072 24.1701 31.6282 23.3767 36.3983L21.6249 46.9296C20.7153 52.3985 27.0742 56.0698 31.3556 52.5476L39.6001 45.7648C43.3343 42.6927 45.8291 38.3716 46.6225 33.6016L48.3743 23.0702C49.284 17.6014 42.925 13.93 38.6437 17.4523L30.3992 24.235ZM35 29C31.6863 29 29 31.6863 29 35C29 38.3137 31.6863 41 35 41C38.3137 41 41 38.3137 41 35C41 31.6863 38.3137 29 35 29Z" fill="white"/>
</svg>
