<svg width="70" height="70" viewBox="0 0 70 70" fill="none" xmlns="http://www.w3.org/2000/svg">
<path fill-rule="evenodd" clip-rule="evenodd" d="M0 35C0 15.67 15.67 0 35 0C54.33 0 70 15.67 70 35C70 54.33 54.33 70 35 70C15.67 70 0 54.33 0 35ZM30.3993 24.235C26.665 27.3072 24.1703 31.6282 23.3768 36.3983L20.75 52.1907C20.1435 55.8366 24.3828 58.2841 27.237 55.936L39.6002 45.7649C43.3345 42.6927 45.8292 38.3716 46.6227 33.6016L49.2495 17.8092C49.856 14.1633 45.6167 11.7157 42.7624 14.0639L30.3993 24.235Z" fill="white"/>
<path d="M29 35C29 31.6863 31.6863 29 35 29C38.3137 29 41 31.6863 41 35C41 38.3137 38.3137 41 35 41C31.6863 41 29 38.3137 29 35Z" fill="white"/>
</svg>
