<svg width="72" height="62" viewBox="0 0 72 62" fill="none" xmlns="http://www.w3.org/2000/svg">
<path fill-rule="evenodd" clip-rule="evenodd" d="M34.6992 0.175758C35.5146 -0.0583284 36.3746 -0.0585431 37.19 0.174859C38.9231 0.670996 40.6722 1.13117 42.4271 1.59289C50.668 3.761 59.0375 5.96293 66.4837 12.0808L69.9127 14.8981C71.3036 16.0408 71.9993 17.7324 72 19.4242V43.0711C72 44.4703 70.8755 45.6047 69.4884 45.6047C68.1012 45.6047 66.9767 44.4703 66.9767 43.0711V26.3719L66.4311 26.8211C63.851 28.9449 61.159 30.5942 58.3998 31.9329C58.5316 32.2407 58.6046 32.5801 58.6046 32.9367V47.4421C58.6046 51.2705 56.2765 54.7068 52.7405 56.0974L39.3451 61.3655C37.1939 62.2115 34.8061 62.2115 32.6549 61.3655L19.2595 56.0974C15.7235 54.7068 13.3953 51.2705 13.3953 47.4421V32.9367C13.3953 32.5711 13.4721 32.2236 13.6103 31.9097C10.8296 30.563 8.11666 28.9041 5.51635 26.7677L2.08734 23.9503C-0.694402 21.6648 -0.695864 17.1843 2.08347 14.8964L5.56886 12.0274C12.9612 5.94224 21.2716 3.75346 29.4515 1.59903C31.2102 1.13582 32.9629 0.674181 34.6992 0.175758ZM66.9767 19.4262C66.9766 19.1219 66.8547 18.9209 66.7404 18.827L63.3114 16.0097C56.093 10.9789 49.6611 8.76013 41.4918 6.59464C39.6954 6.11848 37.8482 5.62883 35.9463 5.08606C34.0359 5.63275 32.182 6.12474 30.3797 6.60305C22.2758 8.75367 15.2145 10.6276 8.74476 15.9533L5.25936 18.8224C5.14486 18.9166 5.02313 19.1179 5.02326 19.4222C5.02338 19.7265 5.14526 19.9275 5.25963 20.0215L8.68864 22.8388C15.2133 28.1995 22.3389 30.0883 30.5083 32.2538C32.3047 32.73 34.1517 33.2196 36.0537 33.7624C37.964 33.2157 39.8177 32.7238 41.6199 32.2455C49.7238 30.0949 56.7855 28.2208 63.2552 22.8951L66.7406 20.0261C66.855 19.9319 66.9766 19.7301 66.9767 19.4262ZM42.5486 37.2494C46.2316 36.2793 49.9411 35.3023 53.5814 33.9658V47.4421C53.5814 49.1823 52.5231 50.7443 50.9159 51.3764L37.5205 56.6444C36.5427 57.0289 35.4573 57.0289 34.4795 56.6444L21.0841 51.3764C19.4769 50.7443 18.4186 49.1823 18.4186 47.4421V33.9371C22.0982 35.289 25.8486 36.2757 29.5728 37.2555C31.3278 37.7173 33.0769 38.1774 34.81 38.6736C35.6254 38.907 36.4854 38.9067 37.3008 38.6727C39.037 38.1743 40.7899 37.7126 42.5486 37.2494Z" fill="white"/>
</svg>
