<svg width="72" height="62" viewBox="0 0 72 62" fill="none" xmlns="http://www.w3.org/2000/svg">
<path fill-rule="evenodd" clip-rule="evenodd" d="M37.19 0.172877C36.3746 -0.0578796 35.5146 -0.0576674 34.6992 0.173766C32.9629 0.666541 31.2102 1.12295 29.4515 1.58091C21.6029 3.62463 12.9612 5.87489 5.56886 11.8911L2.08346 14.7276C-0.695864 16.9895 -0.694402 21.4193 2.08734 23.6789L5.51635 26.4643C8.04963 28.522 10.6898 30.1317 13.3953 31.4444V46.9044C13.3953 50.6894 15.7235 54.0868 19.2595 55.4616L32.6549 60.67C34.8061 61.5064 37.1939 61.5064 39.3451 60.67L52.7405 55.4616C56.2765 54.0868 58.6046 50.6894 58.6046 46.9044V31.4721C61.2923 30.1664 63.9149 28.5649 66.4311 26.5171L66.9767 26.073V42.5829C66.9767 43.9663 68.1012 45.0878 69.4884 45.0878C70.8755 45.0878 72 43.9663 72 42.5829V19.2041C71.9993 17.5314 71.3036 15.859 69.9127 14.7292L66.4837 11.9438C59.0375 5.89535 50.0327 3.5531 42.4271 1.57483C40.6722 1.11835 38.9231 0.66339 37.19 0.172877ZM23.6064 31.9363C22.3344 31.3845 20.8547 31.9657 20.3015 33.2343C19.7482 34.5029 20.3309 35.9786 21.6029 36.5303C25.8822 38.3866 30.312 39.9052 34.8516 41.0672C35.6426 41.2697 36.4724 41.2695 37.2636 41.0665C41.791 39.9043 46.2076 38.3855 50.4732 36.5291C51.7446 35.9758 52.3255 34.4994 51.7707 33.2315C51.2159 31.9636 49.7355 31.3842 48.4642 31.9375C44.4569 33.6814 40.3084 35.1093 36.056 36.2034C31.7905 35.1091 27.6281 33.6808 23.6064 31.9363Z" fill="white"/>
</svg>
