<svg width="69" height="69" viewBox="0 0 69 69" fill="none" xmlns="http://www.w3.org/2000/svg">
<path d="M51.3014 0.790893C51.9304 0.850591 52.2017 1.61299 51.7549 2.05898L20.5277 33.2337C20.1741 33.5868 19.921 34.0275 19.7946 34.5106L16.0414 48.8554C15.7888 49.8207 16.0679 50.8473 16.7745 51.5527C17.4811 52.2582 18.5094 52.5367 19.4763 52.2846L33.8453 48.5377C34.3292 48.4115 34.7707 48.1589 35.1243 47.8058L66.7938 16.1896C67.2381 15.746 67.9978 16.0114 68.0634 16.6353C69.3828 29.1843 69.3082 41.8427 67.8395 54.3794C67.0032 61.5175 61.2563 67.122 54.1312 67.917C41.1896 69.361 27.8104 69.361 14.8688 67.917C7.74372 67.122 1.99681 61.5175 1.16054 54.3794C-0.386846 41.1715 -0.386846 27.8285 1.16054 14.6206C1.99681 7.48255 7.74372 1.87798 14.8688 1.08299C26.8694 -0.255996 39.2462 -0.35336 51.3014 0.790893Z" fill="white"/>
<path d="M56.3563 5.41371C56.7226 5.04862 57.3159 5.04861 57.6822 5.4137L62.9906 10.7132C63.3571 11.079 63.3571 11.6721 62.9906 12.0379L31.8635 43.1127C31.7463 43.2298 31.5975 43.3144 31.4372 43.3567L24.252 45.2303C23.559 45.4104 22.9279 44.7789 23.1077 44.0871L24.9843 36.9147C25.0265 36.7537 25.1108 36.6067 25.2287 36.489L56.3563 5.41371Z" fill="white"/>
</svg>
