<svg width="69" height="70" viewBox="0 0 69 70" fill="none" xmlns="http://www.w3.org/2000/svg">
<path fill-rule="evenodd" clip-rule="evenodd" d="M68.5518 11.5373C69.249 12.5982 69.1328 14.04 68.2031 14.9739L34.8562 48.4747C34.5144 48.8181 34.0877 49.0638 33.62 49.1865L19.7317 52.8309C19.2787 52.9498 18.8118 52.9474 18.3731 52.8352C17.9067 52.716 17.4722 52.4726 17.1203 52.1191C16.4373 51.4329 16.1676 50.4344 16.4117 49.4955L20.0394 35.5432C20.1463 35.1321 20.3469 34.7261 20.6243 34.4075L54.0948 0.800564C54.3878 0.506229 54.7408 0.28594 55.1248 0.151721C55.4096 0.0522035 55.7114 0 56.0187 0C56.7403 0 57.4323 0.287971 57.9425 0.800564L68.2031 11.1085C68.3359 11.2419 68.4521 11.3857 68.5518 11.5373ZM62.4315 13.0412L56.0187 6.59877L25.1176 37.6423L22.8504 46.3625L31.5305 44.0848L62.4315 13.0412Z" fill="white"/>
<path d="M61.9729 54.3391C62.9648 45.8199 63.2804 37.2413 62.9197 28.6843C62.9024 28.2746 63.0558 27.8759 63.3444 27.586L66.9116 24.0023C67.3502 23.5617 68.0996 23.8414 68.1406 24.4632C68.8115 34.6298 68.5571 44.8426 67.3776 54.9742C66.5195 62.3451 60.6269 68.1215 53.3279 68.941C40.7523 70.353 27.7532 70.353 15.1776 68.941C7.87852 68.1215 1.98599 62.3451 1.12785 54.9742C-0.375951 42.0573 -0.375951 29.0084 1.12785 16.0916C1.98599 8.72068 7.87853 2.94427 15.1776 2.12473C24.7174 1.05359 34.501 0.79502 44.1586 1.34902C44.781 1.38472 45.0647 2.14136 44.6239 2.58422L41.0233 6.20149C40.7378 6.48828 40.3463 6.6423 39.9428 6.62863C31.8661 6.35497 23.7345 6.66459 15.782 7.5575C10.9568 8.09927 7.09158 11.9245 6.53251 16.7266C5.07783 29.2215 5.07783 41.8442 6.53251 54.3391C7.09158 59.1413 10.9568 62.9665 15.782 63.5082C27.9559 64.8751 40.5496 64.8751 52.7235 63.5082C57.5487 62.9665 61.4139 59.1413 61.9729 54.3391Z" fill="white"/>
</svg>
