<svg width="4" height="16" viewBox="0 0 4 16" fill="none" xmlns="http://www.w3.org/2000/svg">
<path d="M2.00002 1.25003C2.41424 1.25003 2.75002 1.58582 2.75002 2.00003C2.75002 2.41424 2.41424 2.75003 2.00002 2.75003C1.58581 2.75003 1.25002 2.41424 1.25002 2.00003C1.25002 1.58582 1.58581 1.25003 2.00002 1.25003ZM2.00002 7.25003C2.41424 7.25003 2.75002 7.58582 2.75002 8.00003C2.75002 8.41424 2.41424 8.75003 2.00002 8.75003C1.58581 8.75003 1.25002 8.41424 1.25002 8.00003C1.25002 7.58582 1.58581 7.25003 2.00002 7.25003ZM2.00002 13.25C2.41424 13.25 2.75002 13.5858 2.75002 14C2.75002 14.4142 2.41424 14.75 2.00002 14.75C1.58581 14.75 1.25002 14.4142 1.25002 14C1.25002 13.5858 1.58581 13.25 2.00002 13.25Z" fill="black" stroke="white" stroke-width="1.5"/>
</svg>
